<mxfile host="app.diagrams.net" modified="2022-03-29T07:59:46.041Z" agent="5.0 (Windows NT 10.0; Win64; x64) AppleWebKit/537.36 (KHTML, like Gecko) Chrome/99.0.4844.84 Safari/537.36" etag="89-GOqMjYGLNvgZgldap" version="17.2.4" type="github" pages="7">
  <diagram id="Cl9Hr2QRYbMqXGNqs11D" name="商品上架流程">
    <mxGraphModel dx="1102" dy="580" grid="0" gridSize="10" guides="1" tooltips="1" connect="1" arrows="1" fold="1" page="1" pageScale="1" pageWidth="827" pageHeight="1169" math="0" shadow="0">
      <root>
        <mxCell id="0" />
        <mxCell id="1" parent="0" />
        <mxCell id="KSnNOrh2rsV5-j1ARtiQ-1" value="商品上架业务流程" style="text;html=1;strokeColor=default;fillColor=none;align=center;verticalAlign=middle;whiteSpace=wrap;rounded=0;" parent="1" vertex="1">
          <mxGeometry x="331" y="14" width="165" height="26" as="geometry" />
        </mxCell>
        <mxCell id="KSnNOrh2rsV5-j1ARtiQ-2" value="Text" style="text;html=1;strokeColor=none;fillColor=none;align=center;verticalAlign=middle;whiteSpace=wrap;rounded=0;" parent="1" vertex="1">
          <mxGeometry x="120" y="65" width="60" height="30" as="geometry" />
        </mxCell>
      </root>
    </mxGraphModel>
  </diagram>
  <diagram id="i92HW4FgJUaYo7ypi4_r" name="商品列表">
    <mxGraphModel dx="1102" dy="580" grid="0" gridSize="10" guides="1" tooltips="1" connect="1" arrows="1" fold="1" page="1" pageScale="1" pageWidth="827" pageHeight="1169" math="0" shadow="0">
      <root>
        <mxCell id="TdMcCanm9ETzJff26oj4-0" />
        <mxCell id="TdMcCanm9ETzJff26oj4-1" parent="TdMcCanm9ETzJff26oj4-0" />
      </root>
    </mxGraphModel>
  </diagram>
  <diagram id="3cgv8FoE5RnbXRwzFSbP" name="商品详情">
    <mxGraphModel dx="1102" dy="580" grid="0" gridSize="10" guides="1" tooltips="1" connect="1" arrows="1" fold="1" page="1" pageScale="1" pageWidth="827" pageHeight="1169" math="0" shadow="0">
      <root>
        <mxCell id="VU4jEdw7h-9oWDNrhUU1-0" />
        <mxCell id="VU4jEdw7h-9oWDNrhUU1-1" parent="VU4jEdw7h-9oWDNrhUU1-0" />
      </root>
    </mxGraphModel>
  </diagram>
  <diagram id="xEN12LCF4-FKc3KDq75X" name="平台上架">
    <mxGraphModel dx="1102" dy="580" grid="0" gridSize="10" guides="1" tooltips="1" connect="1" arrows="1" fold="1" page="1" pageScale="1" pageWidth="827" pageHeight="1169" math="0" shadow="0">
      <root>
        <mxCell id="LEz3xAUliw1AeJBdXn3Y-0" />
        <mxCell id="LEz3xAUliw1AeJBdXn3Y-1" parent="LEz3xAUliw1AeJBdXn3Y-0" />
        <mxCell id="LEz3xAUliw1AeJBdXn3Y-2" value="" style="rounded=0;whiteSpace=wrap;html=1;strokeColor=default;" parent="LEz3xAUliw1AeJBdXn3Y-1" vertex="1">
          <mxGeometry x="162" y="175" width="205" height="133" as="geometry" />
        </mxCell>
        <mxCell id="LEz3xAUliw1AeJBdXn3Y-14" style="edgeStyle=orthogonalEdgeStyle;rounded=0;orthogonalLoop=1;jettySize=auto;html=1;entryX=1;entryY=0.5;entryDx=0;entryDy=0;" parent="LEz3xAUliw1AeJBdXn3Y-1" source="LEz3xAUliw1AeJBdXn3Y-3" target="LEz3xAUliw1AeJBdXn3Y-2" edge="1">
          <mxGeometry relative="1" as="geometry" />
        </mxCell>
        <mxCell id="LEz3xAUliw1AeJBdXn3Y-3" value="商端" style="rounded=0;whiteSpace=wrap;html=1;strokeColor=default;" parent="LEz3xAUliw1AeJBdXn3Y-1" vertex="1">
          <mxGeometry x="507" y="176" width="170" height="132" as="geometry" />
        </mxCell>
        <mxCell id="LEz3xAUliw1AeJBdXn3Y-7" value="" style="edgeStyle=orthogonalEdgeStyle;rounded=0;orthogonalLoop=1;jettySize=auto;html=1;entryX=0;entryY=0.5;entryDx=0;entryDy=0;" parent="LEz3xAUliw1AeJBdXn3Y-1" target="LEz3xAUliw1AeJBdXn3Y-2" edge="1">
          <mxGeometry relative="1" as="geometry">
            <mxPoint x="64" y="241" as="sourcePoint" />
            <mxPoint x="160" y="187" as="targetPoint" />
          </mxGeometry>
        </mxCell>
        <mxCell id="LEz3xAUliw1AeJBdXn3Y-5" value="平台运营" style="shape=umlActor;verticalLabelPosition=bottom;verticalAlign=top;html=1;outlineConnect=0;strokeColor=default;" parent="LEz3xAUliw1AeJBdXn3Y-1" vertex="1">
          <mxGeometry x="14" y="210.5" width="30" height="60" as="geometry" />
        </mxCell>
        <mxCell id="LEz3xAUliw1AeJBdXn3Y-10" value="1.0 上架平台商品" style="text;html=1;strokeColor=none;fillColor=none;align=center;verticalAlign=middle;whiteSpace=wrap;rounded=0;" parent="LEz3xAUliw1AeJBdXn3Y-1" vertex="1">
          <mxGeometry x="50" y="207" width="103" height="28" as="geometry" />
        </mxCell>
        <mxCell id="LEz3xAUliw1AeJBdXn3Y-12" value="" style="edgeStyle=orthogonalEdgeStyle;rounded=0;orthogonalLoop=1;jettySize=auto;html=1;entryX=0;entryY=0.75;entryDx=0;entryDy=0;" parent="LEz3xAUliw1AeJBdXn3Y-1" target="LEz3xAUliw1AeJBdXn3Y-2" edge="1">
          <mxGeometry relative="1" as="geometry">
            <mxPoint x="63" y="275" as="sourcePoint" />
            <mxPoint x="172" y="215" as="targetPoint" />
            <Array as="points">
              <mxPoint x="63" y="275" />
              <mxPoint x="113" y="275" />
            </Array>
          </mxGeometry>
        </mxCell>
        <mxCell id="LEz3xAUliw1AeJBdXn3Y-13" value="2.0 发布平台商品" style="text;html=1;strokeColor=none;fillColor=none;align=center;verticalAlign=middle;whiteSpace=wrap;rounded=0;" parent="LEz3xAUliw1AeJBdXn3Y-1" vertex="1">
          <mxGeometry x="57" y="243" width="96" height="27" as="geometry" />
        </mxCell>
        <mxCell id="LEz3xAUliw1AeJBdXn3Y-15" value="3.0 上架商户商品（提供货源）" style="text;html=1;strokeColor=none;fillColor=none;align=center;verticalAlign=middle;whiteSpace=wrap;rounded=0;" parent="LEz3xAUliw1AeJBdXn3Y-1" vertex="1">
          <mxGeometry x="376" y="202" width="116" height="29" as="geometry" />
        </mxCell>
        <mxCell id="LEz3xAUliw1AeJBdXn3Y-18" value="平台商品" style="rounded=0;whiteSpace=wrap;html=1;strokeColor=default;" parent="LEz3xAUliw1AeJBdXn3Y-1" vertex="1">
          <mxGeometry x="166" y="228" width="50" height="43" as="geometry" />
        </mxCell>
        <mxCell id="LEz3xAUliw1AeJBdXn3Y-20" style="edgeStyle=orthogonalEdgeStyle;rounded=0;orthogonalLoop=1;jettySize=auto;html=1;exitX=0;exitY=0.5;exitDx=0;exitDy=0;entryX=1;entryY=0.5;entryDx=0;entryDy=0;" parent="LEz3xAUliw1AeJBdXn3Y-1" source="LEz3xAUliw1AeJBdXn3Y-19" target="LEz3xAUliw1AeJBdXn3Y-18" edge="1">
          <mxGeometry relative="1" as="geometry" />
        </mxCell>
        <mxCell id="LEz3xAUliw1AeJBdXn3Y-19" value="商户商品" style="rounded=0;whiteSpace=wrap;html=1;strokeColor=default;" parent="LEz3xAUliw1AeJBdXn3Y-1" vertex="1">
          <mxGeometry x="303" y="227.5" width="50" height="43" as="geometry" />
        </mxCell>
        <mxCell id="LEz3xAUliw1AeJBdXn3Y-21" value="1. 根据规则自动关联" style="text;html=1;strokeColor=none;fillColor=none;align=center;verticalAlign=middle;whiteSpace=wrap;rounded=0;" parent="LEz3xAUliw1AeJBdXn3Y-1" vertex="1">
          <mxGeometry x="234.5" y="210.5" width="60" height="30" as="geometry" />
        </mxCell>
        <mxCell id="LEz3xAUliw1AeJBdXn3Y-22" value="2. 人工手动关联" style="text;html=1;strokeColor=none;fillColor=none;align=center;verticalAlign=middle;whiteSpace=wrap;rounded=0;" parent="LEz3xAUliw1AeJBdXn3Y-1" vertex="1">
          <mxGeometry x="234.5" y="261" width="60" height="30" as="geometry" />
        </mxCell>
      </root>
    </mxGraphModel>
  </diagram>
  <diagram id="p5ps0Y8kZM3xNCXhl5ym" name="价格导入">
    <mxGraphModel dx="1929" dy="580" grid="0" gridSize="10" guides="1" tooltips="1" connect="1" arrows="1" fold="1" page="1" pageScale="1" pageWidth="827" pageHeight="1169" math="0" shadow="0">
      <root>
        <mxCell id="FErHKWFVpBqNwyjONL80-0" />
        <mxCell id="FErHKWFVpBqNwyjONL80-1" parent="FErHKWFVpBqNwyjONL80-0" />
        <mxCell id="FErHKWFVpBqNwyjONL80-4" value="" style="rounded=0;whiteSpace=wrap;html=1;" parent="FErHKWFVpBqNwyjONL80-1" vertex="1">
          <mxGeometry x="-6" y="261" width="757" height="883" as="geometry" />
        </mxCell>
        <mxCell id="FErHKWFVpBqNwyjONL80-8" style="edgeStyle=orthogonalEdgeStyle;rounded=0;orthogonalLoop=1;jettySize=auto;html=1;exitX=1;exitY=0.3333333333333333;exitDx=0;exitDy=0;exitPerimeter=0;entryX=0.225;entryY=0.002;entryDx=0;entryDy=0;entryPerimeter=0;" parent="FErHKWFVpBqNwyjONL80-1" source="FErHKWFVpBqNwyjONL80-3" target="FErHKWFVpBqNwyjONL80-4" edge="1">
          <mxGeometry relative="1" as="geometry" />
        </mxCell>
        <mxCell id="FErHKWFVpBqNwyjONL80-3" value="价格运营" style="shape=umlActor;verticalLabelPosition=bottom;verticalAlign=top;html=1;outlineConnect=0;" parent="FErHKWFVpBqNwyjONL80-1" vertex="1">
          <mxGeometry x="90" y="40" width="30" height="60" as="geometry" />
        </mxCell>
        <mxCell id="FErHKWFVpBqNwyjONL80-6" value="导入价格" style="text;html=1;strokeColor=none;fillColor=none;align=center;verticalAlign=middle;whiteSpace=wrap;rounded=0;" parent="FErHKWFVpBqNwyjONL80-1" vertex="1">
          <mxGeometry x="210" y="136" width="60" height="30" as="geometry" />
        </mxCell>
        <mxCell id="FErHKWFVpBqNwyjONL80-7" value="" style="shape=curlyBracket;whiteSpace=wrap;html=1;rounded=1;" parent="FErHKWFVpBqNwyjONL80-1" vertex="1">
          <mxGeometry x="279" y="91" width="20" height="120" as="geometry" />
        </mxCell>
        <mxCell id="FErHKWFVpBqNwyjONL80-9" value="sku" style="text;html=1;strokeColor=none;fillColor=none;align=center;verticalAlign=middle;whiteSpace=wrap;rounded=0;" parent="FErHKWFVpBqNwyjONL80-1" vertex="1">
          <mxGeometry x="305" y="80" width="60" height="30" as="geometry" />
        </mxCell>
        <mxCell id="FErHKWFVpBqNwyjONL80-10" value="城市" style="text;html=1;strokeColor=none;fillColor=none;align=center;verticalAlign=middle;whiteSpace=wrap;rounded=0;" parent="FErHKWFVpBqNwyjONL80-1" vertex="1">
          <mxGeometry x="305" y="136" width="60" height="30" as="geometry" />
        </mxCell>
        <mxCell id="FErHKWFVpBqNwyjONL80-11" value="指导价" style="text;html=1;strokeColor=none;fillColor=none;align=center;verticalAlign=middle;whiteSpace=wrap;rounded=0;" parent="FErHKWFVpBqNwyjONL80-1" vertex="1">
          <mxGeometry x="305" y="195" width="60" height="30" as="geometry" />
        </mxCell>
        <mxCell id="FErHKWFVpBqNwyjONL80-30" style="edgeStyle=orthogonalEdgeStyle;rounded=0;orthogonalLoop=1;jettySize=auto;html=1;" parent="FErHKWFVpBqNwyjONL80-1" source="FErHKWFVpBqNwyjONL80-22" target="FErHKWFVpBqNwyjONL80-29" edge="1">
          <mxGeometry relative="1" as="geometry" />
        </mxCell>
        <mxCell id="FErHKWFVpBqNwyjONL80-22" value="SKU是否有效校验" style="rounded=0;whiteSpace=wrap;html=1;" parent="FErHKWFVpBqNwyjONL80-1" vertex="1">
          <mxGeometry x="155" y="298" width="120" height="48" as="geometry" />
        </mxCell>
        <mxCell id="FErHKWFVpBqNwyjONL80-37" style="edgeStyle=orthogonalEdgeStyle;rounded=0;orthogonalLoop=1;jettySize=auto;html=1;exitX=0.5;exitY=1;exitDx=0;exitDy=0;" parent="FErHKWFVpBqNwyjONL80-1" source="FErHKWFVpBqNwyjONL80-26" edge="1">
          <mxGeometry relative="1" as="geometry">
            <mxPoint x="215" y="662" as="targetPoint" />
          </mxGeometry>
        </mxCell>
        <mxCell id="FErHKWFVpBqNwyjONL80-26" value="根据SKU、城市校验价格表中的数据是否存在" style="rounded=0;whiteSpace=wrap;html=1;" parent="FErHKWFVpBqNwyjONL80-1" vertex="1">
          <mxGeometry x="155" y="522" width="120" height="60" as="geometry" />
        </mxCell>
        <mxCell id="FErHKWFVpBqNwyjONL80-31" style="edgeStyle=orthogonalEdgeStyle;rounded=0;orthogonalLoop=1;jettySize=auto;html=1;exitX=0.5;exitY=1;exitDx=0;exitDy=0;" parent="FErHKWFVpBqNwyjONL80-1" source="FErHKWFVpBqNwyjONL80-29" target="FErHKWFVpBqNwyjONL80-26" edge="1">
          <mxGeometry relative="1" as="geometry" />
        </mxCell>
        <mxCell id="FErHKWFVpBqNwyjONL80-34" style="edgeStyle=orthogonalEdgeStyle;rounded=0;orthogonalLoop=1;jettySize=auto;html=1;entryX=0;entryY=0.5;entryDx=0;entryDy=0;entryPerimeter=0;exitX=0;exitY=0.5;exitDx=0;exitDy=0;" parent="FErHKWFVpBqNwyjONL80-1" source="FErHKWFVpBqNwyjONL80-29" target="FErHKWFVpBqNwyjONL80-33" edge="1">
          <mxGeometry relative="1" as="geometry">
            <Array as="points">
              <mxPoint x="81" y="414" />
              <mxPoint x="81" y="1001" />
            </Array>
          </mxGeometry>
        </mxCell>
        <mxCell id="FErHKWFVpBqNwyjONL80-29" value="校验通过？" style="rhombus;whiteSpace=wrap;html=1;" parent="FErHKWFVpBqNwyjONL80-1" vertex="1">
          <mxGeometry x="175" y="374" width="80" height="80" as="geometry" />
        </mxCell>
        <mxCell id="FErHKWFVpBqNwyjONL80-32" value="Y" style="text;html=1;strokeColor=none;fillColor=none;align=center;verticalAlign=middle;whiteSpace=wrap;rounded=0;" parent="FErHKWFVpBqNwyjONL80-1" vertex="1">
          <mxGeometry x="201" y="481" width="61" height="31" as="geometry" />
        </mxCell>
        <mxCell id="FErHKWFVpBqNwyjONL80-33" value="结束" style="strokeWidth=2;html=1;shape=mxgraph.flowchart.terminator;whiteSpace=wrap;" parent="FErHKWFVpBqNwyjONL80-1" vertex="1">
          <mxGeometry x="165" y="971" width="100" height="60" as="geometry" />
        </mxCell>
        <mxCell id="FErHKWFVpBqNwyjONL80-35" value="N" style="text;html=1;strokeColor=none;fillColor=none;align=center;verticalAlign=middle;whiteSpace=wrap;rounded=0;" parent="FErHKWFVpBqNwyjONL80-1" vertex="1">
          <mxGeometry x="107" y="380" width="60" height="30" as="geometry" />
        </mxCell>
        <mxCell id="FErHKWFVpBqNwyjONL80-40" style="edgeStyle=orthogonalEdgeStyle;rounded=0;orthogonalLoop=1;jettySize=auto;html=1;" parent="FErHKWFVpBqNwyjONL80-1" source="FErHKWFVpBqNwyjONL80-36" target="FErHKWFVpBqNwyjONL80-39" edge="1">
          <mxGeometry relative="1" as="geometry" />
        </mxCell>
        <mxCell id="FErHKWFVpBqNwyjONL80-44" style="edgeStyle=orthogonalEdgeStyle;rounded=0;orthogonalLoop=1;jettySize=auto;html=1;exitX=1;exitY=0.5;exitDx=0;exitDy=0;" parent="FErHKWFVpBqNwyjONL80-1" source="FErHKWFVpBqNwyjONL80-36" target="FErHKWFVpBqNwyjONL80-42" edge="1">
          <mxGeometry relative="1" as="geometry" />
        </mxCell>
        <mxCell id="FErHKWFVpBqNwyjONL80-36" value="存在？" style="rhombus;whiteSpace=wrap;html=1;" parent="FErHKWFVpBqNwyjONL80-1" vertex="1">
          <mxGeometry x="175" y="660" width="80" height="80" as="geometry" />
        </mxCell>
        <mxCell id="FErHKWFVpBqNwyjONL80-46" style="edgeStyle=orthogonalEdgeStyle;rounded=0;orthogonalLoop=1;jettySize=auto;html=1;" parent="FErHKWFVpBqNwyjONL80-1" source="FErHKWFVpBqNwyjONL80-39" target="FErHKWFVpBqNwyjONL80-33" edge="1">
          <mxGeometry relative="1" as="geometry" />
        </mxCell>
        <mxCell id="FErHKWFVpBqNwyjONL80-39" value="更新价格数据为待审核，插入新待确认的指导价（审核通过后， 将该记录中的数据放入指导价的记录中）" style="rounded=0;whiteSpace=wrap;html=1;" parent="FErHKWFVpBqNwyjONL80-1" vertex="1">
          <mxGeometry x="136.5" y="794" width="157" height="113" as="geometry" />
        </mxCell>
        <mxCell id="FErHKWFVpBqNwyjONL80-41" value="Y" style="text;html=1;strokeColor=none;fillColor=none;align=center;verticalAlign=middle;whiteSpace=wrap;rounded=0;" parent="FErHKWFVpBqNwyjONL80-1" vertex="1">
          <mxGeometry x="194" y="757" width="61" height="31" as="geometry" />
        </mxCell>
        <mxCell id="FErHKWFVpBqNwyjONL80-47" style="edgeStyle=orthogonalEdgeStyle;rounded=0;orthogonalLoop=1;jettySize=auto;html=1;entryX=1;entryY=0.5;entryDx=0;entryDy=0;entryPerimeter=0;exitX=0.5;exitY=1;exitDx=0;exitDy=0;" parent="FErHKWFVpBqNwyjONL80-1" source="FErHKWFVpBqNwyjONL80-42" target="FErHKWFVpBqNwyjONL80-33" edge="1">
          <mxGeometry relative="1" as="geometry" />
        </mxCell>
        <mxCell id="FErHKWFVpBqNwyjONL80-42" value="插入新的价格数据（指导价格），设置状态为待审核" style="rounded=0;whiteSpace=wrap;html=1;" parent="FErHKWFVpBqNwyjONL80-1" vertex="1">
          <mxGeometry x="354" y="797" width="120" height="60" as="geometry" />
        </mxCell>
        <mxCell id="FErHKWFVpBqNwyjONL80-45" value="N" style="text;html=1;strokeColor=none;fillColor=none;align=center;verticalAlign=middle;whiteSpace=wrap;rounded=0;" parent="FErHKWFVpBqNwyjONL80-1" vertex="1">
          <mxGeometry x="248" y="699" width="61" height="31" as="geometry" />
        </mxCell>
      </root>
    </mxGraphModel>
  </diagram>
  <diagram id="ai0iyXnsUcr0FrOJDk6k" name="上下文">
    <mxGraphModel dx="1102" dy="580" grid="0" gridSize="10" guides="1" tooltips="1" connect="1" arrows="1" fold="1" page="1" pageScale="1" pageWidth="827" pageHeight="1169" math="0" shadow="0">
      <root>
        <mxCell id="gcfdWqr-NqDWSR2RHnLh-0" />
        <mxCell id="gcfdWqr-NqDWSR2RHnLh-1" parent="gcfdWqr-NqDWSR2RHnLh-0" />
        <mxCell id="gcfdWqr-NqDWSR2RHnLh-2" value="商品系统" style="rounded=0;whiteSpace=wrap;html=1;" parent="gcfdWqr-NqDWSR2RHnLh-1" vertex="1">
          <mxGeometry x="227" y="225" width="120" height="60" as="geometry" />
        </mxCell>
        <mxCell id="gcfdWqr-NqDWSR2RHnLh-4" style="edgeStyle=orthogonalEdgeStyle;rounded=0;orthogonalLoop=1;jettySize=auto;html=1;entryX=1;entryY=0.5;entryDx=0;entryDy=0;exitX=0.5;exitY=1;exitDx=0;exitDy=0;" parent="gcfdWqr-NqDWSR2RHnLh-1" source="gcfdWqr-NqDWSR2RHnLh-3" target="gcfdWqr-NqDWSR2RHnLh-2" edge="1">
          <mxGeometry relative="1" as="geometry" />
        </mxCell>
        <mxCell id="gcfdWqr-NqDWSR2RHnLh-3" value="商端商品系统" style="rounded=0;whiteSpace=wrap;html=1;" parent="gcfdWqr-NqDWSR2RHnLh-1" vertex="1">
          <mxGeometry x="530" y="117" width="120" height="60" as="geometry" />
        </mxCell>
        <mxCell id="gcfdWqr-NqDWSR2RHnLh-5" value="SPU" style="text;html=1;strokeColor=none;fillColor=none;align=center;verticalAlign=middle;whiteSpace=wrap;rounded=0;" parent="gcfdWqr-NqDWSR2RHnLh-1" vertex="1">
          <mxGeometry x="375" y="215" width="60" height="30" as="geometry" />
        </mxCell>
        <mxCell id="gcfdWqr-NqDWSR2RHnLh-9" style="edgeStyle=orthogonalEdgeStyle;rounded=0;orthogonalLoop=1;jettySize=auto;html=1;" parent="gcfdWqr-NqDWSR2RHnLh-1" source="gcfdWqr-NqDWSR2RHnLh-8" edge="1">
          <mxGeometry relative="1" as="geometry">
            <mxPoint x="440" y="71" as="targetPoint" />
          </mxGeometry>
        </mxCell>
        <mxCell id="gcfdWqr-NqDWSR2RHnLh-8" value="" style="shape=actor;whiteSpace=wrap;html=1;dashed=1;strokeWidth=2;" parent="gcfdWqr-NqDWSR2RHnLh-1" vertex="1">
          <mxGeometry x="313" y="41" width="40" height="60" as="geometry" />
        </mxCell>
        <mxCell id="gcfdWqr-NqDWSR2RHnLh-10" value="商户" style="text;html=1;strokeColor=none;fillColor=none;align=center;verticalAlign=middle;whiteSpace=wrap;rounded=0;dashed=1;" parent="gcfdWqr-NqDWSR2RHnLh-1" vertex="1">
          <mxGeometry x="303" y="106" width="60" height="30" as="geometry" />
        </mxCell>
        <mxCell id="gcfdWqr-NqDWSR2RHnLh-11" value="商端商品系统" style="rounded=0;whiteSpace=wrap;html=1;" parent="gcfdWqr-NqDWSR2RHnLh-1" vertex="1">
          <mxGeometry x="441" y="41" width="120" height="60" as="geometry" />
        </mxCell>
      </root>
    </mxGraphModel>
  </diagram>
  <diagram id="z8gbRlRrntDrJ0b32MMJ" name="Page-7">
    <mxGraphModel dx="1160" dy="611" grid="0" gridSize="10" guides="1" tooltips="1" connect="1" arrows="1" fold="1" page="1" pageScale="1" pageWidth="827" pageHeight="1169" math="0" shadow="0">
      <root>
        <mxCell id="0" />
        <mxCell id="1" parent="0" />
        <mxCell id="Tx0mkNIQD6ieV4CfNpoD-3" style="edgeStyle=orthogonalEdgeStyle;rounded=0;orthogonalLoop=1;jettySize=auto;html=1;entryX=0;entryY=0.5;entryDx=0;entryDy=0;" edge="1" parent="1" source="Tx0mkNIQD6ieV4CfNpoD-1" target="Tx0mkNIQD6ieV4CfNpoD-2">
          <mxGeometry relative="1" as="geometry">
            <Array as="points">
              <mxPoint x="194" y="100" />
              <mxPoint x="194" y="100" />
            </Array>
          </mxGeometry>
        </mxCell>
        <mxCell id="Tx0mkNIQD6ieV4CfNpoD-13" value="" style="edgeStyle=orthogonalEdgeStyle;rounded=0;orthogonalLoop=1;jettySize=auto;html=1;" edge="1" parent="1" target="Tx0mkNIQD6ieV4CfNpoD-12">
          <mxGeometry relative="1" as="geometry">
            <mxPoint x="163" y="152" as="sourcePoint" />
          </mxGeometry>
        </mxCell>
        <mxCell id="Tx0mkNIQD6ieV4CfNpoD-1" value="商户" style="shape=umlActor;verticalLabelPosition=bottom;verticalAlign=top;html=1;outlineConnect=0;" vertex="1" parent="1">
          <mxGeometry x="148" y="67" width="30" height="60" as="geometry" />
        </mxCell>
        <mxCell id="Tx0mkNIQD6ieV4CfNpoD-5" style="edgeStyle=orthogonalEdgeStyle;rounded=0;orthogonalLoop=1;jettySize=auto;html=1;exitX=1;exitY=0.5;exitDx=0;exitDy=0;" edge="1" parent="1" source="Tx0mkNIQD6ieV4CfNpoD-2" target="Tx0mkNIQD6ieV4CfNpoD-4">
          <mxGeometry relative="1" as="geometry" />
        </mxCell>
        <mxCell id="Tx0mkNIQD6ieV4CfNpoD-2" value="上架设备" style="rounded=0;whiteSpace=wrap;html=1;" vertex="1" parent="1">
          <mxGeometry x="294" y="70" width="120" height="60" as="geometry" />
        </mxCell>
        <mxCell id="Tx0mkNIQD6ieV4CfNpoD-23" style="edgeStyle=orthogonalEdgeStyle;rounded=0;orthogonalLoop=1;jettySize=auto;html=1;exitX=0.5;exitY=1;exitDx=0;exitDy=0;endArrow=classic;endFill=1;" edge="1" parent="1" source="Tx0mkNIQD6ieV4CfNpoD-4" target="Tx0mkNIQD6ieV4CfNpoD-6">
          <mxGeometry relative="1" as="geometry" />
        </mxCell>
        <mxCell id="Tx0mkNIQD6ieV4CfNpoD-4" value="发布商品" style="rounded=0;whiteSpace=wrap;html=1;" vertex="1" parent="1">
          <mxGeometry x="500" y="70" width="120" height="60" as="geometry" />
        </mxCell>
        <mxCell id="Tx0mkNIQD6ieV4CfNpoD-20" style="edgeStyle=orthogonalEdgeStyle;rounded=0;orthogonalLoop=1;jettySize=auto;html=1;exitX=0.5;exitY=1;exitDx=0;exitDy=0;entryX=0.5;entryY=0;entryDx=0;entryDy=0;endArrow=classic;endFill=1;" edge="1" parent="1" source="Tx0mkNIQD6ieV4CfNpoD-6" target="Tx0mkNIQD6ieV4CfNpoD-19">
          <mxGeometry relative="1" as="geometry">
            <Array as="points">
              <mxPoint x="560" y="390" />
              <mxPoint x="951" y="390" />
            </Array>
          </mxGeometry>
        </mxCell>
        <mxCell id="Tx0mkNIQD6ieV4CfNpoD-6" value="商户商品系统" style="rounded=0;whiteSpace=wrap;html=1;" vertex="1" parent="1">
          <mxGeometry x="500" y="191" width="120" height="60" as="geometry" />
        </mxCell>
        <mxCell id="Tx0mkNIQD6ieV4CfNpoD-7" value="平台商品系统" style="rounded=0;whiteSpace=wrap;html=1;" vertex="1" parent="1">
          <mxGeometry x="103" y="531" width="120" height="60" as="geometry" />
        </mxCell>
        <mxCell id="Tx0mkNIQD6ieV4CfNpoD-15" style="edgeStyle=orthogonalEdgeStyle;rounded=0;orthogonalLoop=1;jettySize=auto;html=1;exitX=0.5;exitY=1;exitDx=0;exitDy=0;entryX=0.5;entryY=0;entryDx=0;entryDy=0;endArrow=classic;endFill=1;" edge="1" parent="1" source="Tx0mkNIQD6ieV4CfNpoD-8" target="Tx0mkNIQD6ieV4CfNpoD-11">
          <mxGeometry relative="1" as="geometry" />
        </mxCell>
        <mxCell id="Tx0mkNIQD6ieV4CfNpoD-8" value="后台类目" style="rounded=0;whiteSpace=wrap;html=1;" vertex="1" parent="1">
          <mxGeometry x="338" y="531" width="120" height="60" as="geometry" />
        </mxCell>
        <mxCell id="Tx0mkNIQD6ieV4CfNpoD-9" value="品牌" style="rounded=0;whiteSpace=wrap;html=1;" vertex="1" parent="1">
          <mxGeometry x="500" y="531" width="120" height="60" as="geometry" />
        </mxCell>
        <mxCell id="Tx0mkNIQD6ieV4CfNpoD-10" value="型号" style="rounded=0;whiteSpace=wrap;html=1;" vertex="1" parent="1">
          <mxGeometry x="655" y="531" width="120" height="60" as="geometry" />
        </mxCell>
        <mxCell id="Tx0mkNIQD6ieV4CfNpoD-11" value="属性" style="rounded=0;whiteSpace=wrap;html=1;" vertex="1" parent="1">
          <mxGeometry x="338" y="709" width="120" height="60" as="geometry" />
        </mxCell>
        <mxCell id="Tx0mkNIQD6ieV4CfNpoD-18" style="edgeStyle=orthogonalEdgeStyle;rounded=0;orthogonalLoop=1;jettySize=auto;html=1;exitX=0.5;exitY=1;exitDx=0;exitDy=0;endArrow=classic;endFill=1;" edge="1" parent="1" source="Tx0mkNIQD6ieV4CfNpoD-12" target="Tx0mkNIQD6ieV4CfNpoD-14">
          <mxGeometry relative="1" as="geometry" />
        </mxCell>
        <mxCell id="Tx0mkNIQD6ieV4CfNpoD-12" value="仓库" style="whiteSpace=wrap;html=1;verticalAlign=top;" vertex="1" parent="1">
          <mxGeometry x="103" y="191" width="120" height="60" as="geometry" />
        </mxCell>
        <mxCell id="Tx0mkNIQD6ieV4CfNpoD-14" value="覆盖区域" style="whiteSpace=wrap;html=1;verticalAlign=top;" vertex="1" parent="1">
          <mxGeometry x="103" y="327" width="120" height="60" as="geometry" />
        </mxCell>
        <mxCell id="Tx0mkNIQD6ieV4CfNpoD-16" value="1个类目对应多个属性，叶子类目的属性集合通常为商品的属性" style="text;html=1;strokeColor=none;fillColor=none;align=center;verticalAlign=middle;whiteSpace=wrap;rounded=0;" vertex="1" parent="1">
          <mxGeometry x="268" y="632" width="122" height="35" as="geometry" />
        </mxCell>
        <mxCell id="Tx0mkNIQD6ieV4CfNpoD-19" value="平台商品系统" style="rounded=0;whiteSpace=wrap;html=1;" vertex="1" parent="1">
          <mxGeometry x="891" y="441" width="120" height="60" as="geometry" />
        </mxCell>
        <mxCell id="Tx0mkNIQD6ieV4CfNpoD-21" value="上架平台商品（商品售卖的区域）" style="text;html=1;strokeColor=none;fillColor=none;align=center;verticalAlign=middle;whiteSpace=wrap;rounded=0;" vertex="1" parent="1">
          <mxGeometry x="652" y="371" width="204" height="14" as="geometry" />
        </mxCell>
      </root>
    </mxGraphModel>
  </diagram>
</mxfile>
